# xmcd
#
# Track frame offsets: 
#        150
#        12368
#        33022
#        54279
#        67595
#        83785
#        97850
#        113140
#        148213
#        157086
#        172526
#        195174
#
# Disc length: 2822 seconds
#
# Revision: 0
# Processed by: cddbd v1.5.1PL0 Copyright (c) Steve Scherf et al.
# Submitted via: ExactAudioCopy v0.95a5
#
DISCID=800b040c
DTITLE=Rockside Band - La La La
DYEAR=2004
DGENRE=Blues
TTITLE0=Welcome
TTITLE1=I Want To Talk To You
TTITLE2=La La La
TTITLE3=Larme de Rimbaud
TTITLE4=Just Waiting
TTITLE5=La Louisiane
TTITLE6=I'm The Rich Man
TTITLE7=Picadilly Circus
TTITLE8=Tepee
TTITLE9=Roman
TTITLE10=The Fool On The Phone
TTITLE11=Satin Soul (The Fool On The Phone part. 2)
EXTD=
EXTT0=
EXTT1=
EXTT2=
EXTT3=
EXTT4=
EXTT5=
EXTT6=
EXTT7=
EXTT8=
EXTT9=
EXTT10=
EXTT11=
PLAYORDER=
